<svg width="102" height="85" viewBox="0 0 102 85" fill="none" xmlns="http://www.w3.org/2000/svg">
<mask id="mask0_1_2220" style="mask-type:luminance" maskUnits="userSpaceOnUse" x="0" y="0" width="102" height="85">
<path d="M102 0H0V85H102V0Z" fill="white"/>
</mask>
<g mask="url(#mask0_1_2220)">
<path d="M102.001 54.6137C102.001 59.9223 100.766 65.1381 98.4202 69.7421C96.0742 74.3456 92.6986 78.1767 88.6299 80.8533C84.5608 83.5304 79.9403 84.9594 75.2287 84.9985C70.5168 85.0377 65.8781 83.6857 61.7747 81.0768C59.0159 83.3606 55.7347 84.707 52.3187 84.9573C48.9027 85.2075 45.4942 84.3509 42.4963 82.4891C38.7774 84.1594 34.8087 85.0117 30.805 84.9998C13.8194 84.9998 0.0012207 69.9004 0.0012207 51.3396C0.0012207 32.7788 13.8194 17.6793 30.805 17.6793H30.8122C34.1744 11.3589 39.1607 6.33751 45.1112 3.27929C51.0617 0.221083 57.6958 -0.72979 64.1365 0.55247C70.5772 1.83473 76.5205 5.2897 81.1803 10.4603C85.8397 15.6309 88.9966 22.2735 90.2325 29.5093C93.8725 32.2842 96.85 36.0258 98.9021 40.404C100.955 44.7824 102.019 49.6625 102.001 54.6137ZM61.5016 73.2885C62.1286 73.2881 62.7408 73.503 63.2568 73.9043C65.5469 75.6771 68.1296 76.9145 70.8518 77.5435C73.574 78.1724 76.3804 78.1797 79.1052 77.5652C81.8296 76.9503 84.4173 75.7264 86.7149 73.9655C89.0125 72.2047 90.9732 69.9425 92.481 67.3127C93.9888 64.6832 95.0132 61.7393 95.494 58.6559C95.9745 55.5724 95.9008 52.4115 95.2784 49.3608C94.6555 46.3097 93.4959 43.4305 91.8684 40.893C90.2404 38.3557 88.1774 36.212 85.8016 34.5886C85.4118 34.3219 85.0794 33.9616 84.8279 33.5333C84.5763 33.105 84.4116 32.6194 84.3459 32.1111C83.5433 25.9548 81.0285 20.2437 77.1634 15.7992C73.2979 11.3546 68.2811 8.40543 62.8345 7.37575C57.3876 6.34602 51.7914 7.28885 46.8498 10.0686C41.9086 12.8483 37.8773 17.3218 35.3349 22.8458C35.06 23.4458 34.6358 23.9424 34.1142 24.275C33.5926 24.6075 32.9963 24.7615 32.3982 24.7182C31.7863 24.6756 31.2791 24.6552 30.8024 24.6552C17.2297 24.6552 6.18737 36.6269 6.18737 51.3413C6.18737 66.0556 17.2313 78.0269 30.8024 78.0269C34.4785 78.0401 38.1126 77.1456 41.4489 75.4069C41.9369 75.1528 42.4752 75.046 43.0108 75.0971C43.5463 75.1486 44.0608 75.3562 44.5035 75.6996C46.741 77.4333 49.4428 78.2388 52.1487 77.9792C54.8542 77.7197 57.3962 76.4111 59.3414 74.2762C59.9197 73.6421 60.6948 73.2877 61.5016 73.2885Z" fill="#4F80E1"/>
<path d="M34.8223 39.0114H30.2221C30.0391 39.0114 29.8636 39.0933 29.7342 39.2391C29.6048 39.385 29.532 39.5827 29.532 39.7889V51.9683H29.5438L35.5116 45.2447V39.7893C35.5117 39.5832 35.4391 39.3855 35.3098 39.2396C35.1806 39.0937 35.0052 39.0116 34.8223 39.0114Z" fill="#292C44"/>
<path d="M53.6628 33.3304C52.9633 32.5423 52.0141 32.0994 51.0249 32.0994C50.0353 32.0994 49.0865 32.5423 48.387 33.3304L36.6753 46.5252L35.5123 47.8358L29.5445 54.5594L15.8668 69.969C19.5194 72.978 23.8191 74.8334 28.3214 75.3423C32.8237 75.8517 37.365 74.9968 41.4756 72.8657C41.9636 72.6121 42.5015 72.5057 43.0371 72.5568C43.5723 72.6083 44.0867 72.8159 44.5294 73.1589C46.7666 74.8926 49.4687 75.6981 52.1743 75.4385C54.8798 75.1789 57.4218 73.87 59.3666 71.735C59.8803 71.1729 60.5511 70.8282 61.2646 70.7606C61.9785 70.6929 62.6908 70.9057 63.2808 71.3631C66.8026 74.0959 70.9884 75.536 75.2645 75.4849C79.5405 75.4338 83.6984 73.8951 87.168 71.0789L53.6628 33.3304ZM50.7488 65.0617C50.7488 65.2196 50.6929 65.3711 50.5939 65.483C50.4946 65.5945 50.3601 65.6575 50.22 65.6575H45.9228C45.7826 65.6575 45.6482 65.5945 45.5488 65.483C45.4495 65.3711 45.394 65.2196 45.394 65.0617V60.2203C45.394 60.0625 45.4495 59.911 45.5488 59.7991C45.6482 59.6876 45.7826 59.6246 45.9228 59.6246H50.22C50.3601 59.6246 50.4946 59.6876 50.5939 59.7991C50.6929 59.911 50.7488 60.0625 50.7488 60.2203V65.0617ZM50.7488 57.7297C50.7488 57.8875 50.6929 58.039 50.5939 58.1509C50.4946 58.2629 50.3601 58.3254 50.22 58.3254H45.9228C45.7826 58.3254 45.6482 58.2629 45.5488 58.1509C45.4495 58.039 45.394 57.8875 45.394 57.7297V52.8883C45.394 52.7304 45.4495 52.5789 45.5488 52.467C45.6482 52.3555 45.7826 52.2925 45.9228 52.2925H50.22C50.3601 52.2925 50.4946 52.3555 50.5939 52.467C50.6929 52.5789 50.7488 52.7304 50.7488 52.8883V57.7297ZM57.6409 65.0617C57.6409 65.2196 57.585 65.3711 57.486 65.483C57.3867 65.5945 57.2522 65.6575 57.1121 65.6575H52.8148C52.6747 65.6575 52.5403 65.5945 52.4409 65.483C52.3416 65.3711 52.2861 65.2196 52.2861 65.0617V60.2203C52.2861 60.0625 52.3416 59.911 52.4409 59.7991C52.5403 59.6876 52.6747 59.6246 52.8148 59.6246H57.1121C57.2522 59.6246 57.3867 59.6876 57.486 59.7991C57.585 59.911 57.6409 60.0625 57.6409 60.2203V65.0617ZM57.6409 57.7297C57.6409 57.8875 57.585 58.039 57.486 58.1509C57.3867 58.2629 57.2522 58.3254 57.1121 58.3254H52.8148C52.6747 58.3254 52.5403 58.2629 52.4409 58.1509C52.3416 58.039 52.2861 57.8875 52.2861 57.7297V52.8883C52.2861 52.7304 52.3416 52.5789 52.4409 52.467C52.5403 52.3555 52.6747 52.2925 52.8148 52.2925H57.1121C57.2522 52.2925 57.3867 52.3555 57.486 52.467C57.585 52.5789 57.6409 52.7304 57.6409 52.8883V57.7297Z" fill="#292C44"/>
</g>
</svg>
